<?xml version="1.0" encoding="UTF-8"?>
<!--Generator: Apple Native CoreSVG 341-->
<!DOCTYPE svg
PUBLIC "-//W3C//DTD SVG 1.1//EN"
       "http://www.w3.org/Graphics/SVG/1.1/DTD/svg11.dtd">
<svg version="1.1" xmlns="http://www.w3.org/2000/svg" xmlns:xlink="http://www.w3.org/1999/xlink" viewBox="0 0 3300 2200">
 <!--glyph: "", point size: 100.0, font version: "20.0d10e1", template writer version: "138.0.0"-->
 <style>.monochrome-0 {-sfsymbols-motion-group:0;-sfsymbols-layer-tags:168d309dfddab96c}

.multicolor-0:tintColor {-sfsymbols-motion-group:0;-sfsymbols-layer-tags:168d309dfddab96c}

.hierarchical-0:primary {-sfsymbols-motion-group:0;-sfsymbols-layer-tags:168d309dfddab96c}

.SFSymbolsPreviewWireframe {fill:none;opacity:1.0;stroke:black;stroke-width:0.5}
</style>
 <g id="Notes">
  <rect height="2200" id="artboard" style="fill:white;opacity:1" width="3300" x="0" y="0"/>
  <line style="fill:none;stroke:black;opacity:1;stroke-width:0.5;" x1="263" x2="3036" y1="292" y2="292"/>
  <text style="stroke:none;fill:black;font-family:sans-serif;font-size:13;font-weight:bold;" transform="matrix(1 0 0 1 263 322)">Weight/Scale Variations</text>
  <text style="stroke:none;fill:black;font-family:sans-serif;font-size:13;text-anchor:middle;" transform="matrix(1 0 0 1 559.711 322)">Ultralight</text>
  <text style="stroke:none;fill:black;font-family:sans-serif;font-size:13;text-anchor:middle;" transform="matrix(1 0 0 1 856.422 322)">Thin</text>
  <text style="stroke:none;fill:black;font-family:sans-serif;font-size:13;text-anchor:middle;" transform="matrix(1 0 0 1 1153.13 322)">Light</text>
  <text style="stroke:none;fill:black;font-family:sans-serif;font-size:13;text-anchor:middle;" transform="matrix(1 0 0 1 1449.84 322)">Regular</text>
  <text style="stroke:none;fill:black;font-family:sans-serif;font-size:13;text-anchor:middle;" transform="matrix(1 0 0 1 1746.56 322)">Medium</text>
  <text style="stroke:none;fill:black;font-family:sans-serif;font-size:13;text-anchor:middle;" transform="matrix(1 0 0 1 2043.27 322)">Semibold</text>
  <text style="stroke:none;fill:black;font-family:sans-serif;font-size:13;text-anchor:middle;" transform="matrix(1 0 0 1 2339.98 322)">Bold</text>
  <text style="stroke:none;fill:black;font-family:sans-serif;font-size:13;text-anchor:middle;" transform="matrix(1 0 0 1 2636.69 322)">Heavy</text>
  <text style="stroke:none;fill:black;font-family:sans-serif;font-size:13;text-anchor:middle;" transform="matrix(1 0 0 1 2933.4 322)">Black</text>
  <line style="fill:none;stroke:black;opacity:1;stroke-width:0.5;" x1="263" x2="3036" y1="1903" y2="1903"/>
  <g transform="matrix(0.2 0 0 0.2 263 1933)">
   <path d="m46.2402 4.15039c21.7773 0 39.4531-17.627 39.4531-39.4043s-17.6758-39.4043-39.4531-39.4043c-21.7285 0-39.4043 17.627-39.4043 39.4043s17.6758 39.4043 39.4043 39.4043Zm0-7.42188c-17.6758 0-31.9336-14.3066-31.9336-31.9824s14.2578-31.9824 31.9336-31.9824 31.9824 14.3066 31.9824 31.9824-14.3066 31.9824-31.9824 31.9824Zm-17.9688-31.9824c0 2.14844 1.51367 3.61328 3.75977 3.61328h10.498v10.5957c0 2.19727 1.46484 3.71094 3.61328 3.71094 2.24609 0 3.71094-1.51367 3.71094-3.71094v-10.5957h10.5957c2.19727 0 3.71094-1.46484 3.71094-3.61328 0-2.19727-1.51367-3.71094-3.71094-3.71094h-10.5957v-10.5469c0-2.24609-1.46484-3.75977-3.71094-3.75977-2.14844 0-3.61328 1.51367-3.61328 3.75977v10.5469h-10.498c-2.24609 0-3.75977 1.51367-3.75977 3.71094Z"/>
  </g>
  <g transform="matrix(0.2 0 0 0.2 281.506 1933)">
   <path d="m58.5449 14.5508c27.4902 0 49.8047-22.3145 49.8047-49.8047s-22.3145-49.8047-49.8047-49.8047-49.8047 22.3145-49.8047 49.8047 22.3145 49.8047 49.8047 49.8047Zm0-8.30078c-22.9492 0-41.5039-18.5547-41.5039-41.5039s18.5547-41.5039 41.5039-41.5039 41.5039 18.5547 41.5039 41.5039-18.5547 41.5039-41.5039 41.5039Zm-22.6562-41.5039c0 2.39258 1.66016 4.00391 4.15039 4.00391h14.3555v14.4043c0 2.44141 1.66016 4.15039 4.05273 4.15039 2.44141 0 4.15039-1.66016 4.15039-4.15039v-14.4043h14.4043c2.44141 0 4.15039-1.61133 4.15039-4.00391 0-2.44141-1.70898-4.15039-4.15039-4.15039h-14.4043v-14.3555c0-2.49023-1.70898-4.19922-4.15039-4.19922-2.39258 0-4.05273 1.70898-4.05273 4.19922v14.3555h-14.3555c-2.49023 0-4.15039 1.70898-4.15039 4.15039Z"/>
  </g>
  <g transform="matrix(0.2 0 0 0.2 304.924 1933)">
   <path d="m74.8535 28.3203c35.1074 0 63.623-28.4668 63.623-63.5742s-28.5156-63.623-63.623-63.623-63.5742 28.5156-63.5742 63.623 28.4668 63.5742 63.5742 63.5742Zm0-9.08203c-30.127 0-54.4922-24.3652-54.4922-54.4922s24.3652-54.4922 54.4922-54.4922 54.4922 24.3652 54.4922 54.4922-24.3652 54.4922-54.4922 54.4922Zm-28.8574-54.4922c0 2.58789 1.85547 4.39453 4.58984 4.39453h19.7266v19.7754c0 2.68555 1.85547 4.58984 4.44336 4.58984 2.68555 0 4.54102-1.85547 4.54102-4.58984v-19.7754h19.7754c2.68555 0 4.58984-1.80664 4.58984-4.39453 0-2.73438-1.85547-4.58984-4.58984-4.58984h-19.7754v-19.7266c0-2.73438-1.85547-4.63867-4.54102-4.63867-2.58789 0-4.44336 1.9043-4.44336 4.63867v19.7266h-19.7266c-2.73438 0-4.58984 1.85547-4.58984 4.58984Z"/>
  </g>
  <text style="stroke:none;fill:black;font-family:sans-serif;font-size:13;font-weight:bold;" transform="matrix(1 0 0 1 263 1953)">Design Variations</text>
  <text style="stroke:none;fill:black;font-family:sans-serif;font-size:13;" transform="matrix(1 0 0 1 263 1971)">Symbols are supported in up to nine weights and three scales.</text>
  <text style="stroke:none;fill:black;font-family:sans-serif;font-size:13;" transform="matrix(1 0 0 1 263 1989)">For optimal layout with text and other symbols, vertically align</text>
  <text style="stroke:none;fill:black;font-family:sans-serif;font-size:13;" transform="matrix(1 0 0 1 263 2007)">symbols with the adjacent text.</text>
  <line style="fill:none;stroke:#00AEEF;stroke-width:0.5;opacity:1.0;" x1="776" x2="776" y1="1919" y2="1933"/>
  <g transform="matrix(0.2 0 0 0.2 776 1933)">
   <path d="m16.5527 0.78125c2.58789 0 3.85742-0.976562 4.78516-3.71094l6.29883-17.2363h28.8086l6.29883 17.2363c0.927734 2.73438 2.19727 3.71094 4.73633 3.71094 2.58789 0 4.24805-1.5625 4.24805-4.00391 0-0.830078-0.146484-1.61133-0.537109-2.63672l-22.9004-60.9863c-1.12305-2.97852-3.125-4.49219-6.25-4.49219-3.02734 0-5.07812 1.46484-6.15234 4.44336l-22.9004 61.084c-0.390625 1.02539-0.537109 1.80664-0.537109 2.63672 0 2.44141 1.5625 3.95508 4.10156 3.95508Zm13.4766-28.3691 11.8652-32.8613h0.244141l11.8652 32.8613Z"/>
  </g>
  <line style="fill:none;stroke:#00AEEF;stroke-width:0.5;opacity:1.0;" x1="792.836" x2="792.836" y1="1919" y2="1933"/>
  <text style="stroke:none;fill:black;font-family:sans-serif;font-size:13;font-weight:bold;" transform="matrix(1 0 0 1 776 1953)">Margins</text>
  <text style="stroke:none;fill:black;font-family:sans-serif;font-size:13;" transform="matrix(1 0 0 1 776 1971)">Leading and trailing margins on the left and right side of each symbol</text>
  <text style="stroke:none;fill:black;font-family:sans-serif;font-size:13;" transform="matrix(1 0 0 1 776 1989)">can be adjusted by modifying the x-location of the margin guidelines.</text>
  <text style="stroke:none;fill:black;font-family:sans-serif;font-size:13;" transform="matrix(1 0 0 1 776 2007)">Modifications are automatically applied proportionally to all</text>
  <text style="stroke:none;fill:black;font-family:sans-serif;font-size:13;" transform="matrix(1 0 0 1 776 2025)">scales and weights.</text>
  <g transform="matrix(0.2 0 0 0.2 1289 1933)">
   <path d="m14.209 9.32617 8.49609 8.54492c4.29688 4.3457 9.22852 4.05273 13.8672-1.07422l53.4668-58.9355-4.83398-4.88281-53.0762 58.3984c-1.75781 2.00195-3.41797 2.49023-5.76172 0.146484l-5.85938-5.81055c-2.34375-2.29492-1.80664-4.00391 0.195312-5.81055l57.373-54.0039-4.88281-4.83398-57.959 54.4434c-4.93164 4.58984-5.32227 9.47266-1.02539 13.8184Zm32.0801-90.9668c-2.09961 2.05078-2.24609 4.93164-1.07422 6.88477 1.17188 1.80664 3.4668 2.97852 6.68945 2.14844 7.32422-1.70898 14.9414-2.00195 22.0703 2.68555l-2.92969 7.27539c-1.70898 4.15039-0.830078 7.08008 1.85547 9.81445l11.4746 11.5723c2.44141 2.44141 4.49219 2.53906 7.32422 2.05078l5.32227-0.976562 3.32031 3.36914-0.195312 2.7832c-0.195312 2.49023 0.439453 4.39453 2.88086 6.78711l3.80859 3.71094c2.39258 2.39258 5.46875 2.53906 7.8125 0.195312l14.5508-14.5996c2.34375-2.34375 2.24609-5.32227-0.146484-7.71484l-3.85742-3.80859c-2.39258-2.39258-4.24805-3.17383-6.64062-2.97852l-2.88086 0.244141-3.22266-3.17383 1.2207-5.61523c0.634766-2.83203-0.146484-5.0293-3.07617-7.95898l-10.9863-10.9375c-16.6992-16.6016-38.8672-16.2109-53.3203-1.75781Zm7.4707 1.85547c12.1582-8.88672 28.6133-7.37305 39.7461 3.75977l12.1582 12.0605c1.17188 1.17188 1.36719 2.09961 1.02539 3.80859l-1.61133 7.42188 7.51953 7.42188 4.93164-0.292969c1.26953-0.0488281 1.66016 0.0488281 2.63672 1.02539l2.88086 2.88086-12.207 12.207-2.88086-2.88086c-0.976562-0.976562-1.12305-1.36719-1.07422-2.68555l0.341797-4.88281-7.4707-7.42188-7.61719 1.26953c-1.61133 0.341797-2.34375 0.195312-3.56445-0.976562l-10.0098-10.0098c-1.26953-1.17188-1.41602-2.00195-0.634766-3.85742l4.39453-10.4492c-7.8125-7.27539-17.9688-10.4004-28.125-7.42188-0.78125 0.195312-1.07422-0.439453-0.439453-0.976562Z"/>
  </g>
  <text style="stroke:none;fill:black;font-family:sans-serif;font-size:13;font-weight:bold;" transform="matrix(1 0 0 1 1289 1953)">Exporting</text>
  <text style="stroke:none;fill:black;font-family:sans-serif;font-size:13;" transform="matrix(1 0 0 1 1289 1971)">Symbols should be outlined when exporting to ensure the</text>
  <text style="stroke:none;fill:black;font-family:sans-serif;font-size:13;" transform="matrix(1 0 0 1 1289 1989)">design is preserved when submitting to Xcode.</text>
  <text id="template-version" style="stroke:none;fill:black;font-family:sans-serif;font-size:13;text-anchor:end;" transform="matrix(1 0 0 1 3036 1933)">Template v.6.0</text>
  <text style="stroke:none;fill:black;font-family:sans-serif;font-size:13;text-anchor:end;" transform="matrix(1 0 0 1 3036 1951)">Requires Xcode 16 or greater</text>
  <text id="descriptive-name" style="stroke:none;fill:black;font-family:sans-serif;font-size:13;text-anchor:end;" transform="matrix(1 0 0 1 3036 1969)">Generated from custom.mosquito.2</text>
  <text style="stroke:none;fill:black;font-family:sans-serif;font-size:13;text-anchor:end;" transform="matrix(1 0 0 1 3036 1987)">Typeset at 100.0 points</text>
  <text style="stroke:none;fill:black;font-family:sans-serif;font-size:13;" transform="matrix(1 0 0 1 263 726)">Small</text>
  <text style="stroke:none;fill:black;font-family:sans-serif;font-size:13;" transform="matrix(1 0 0 1 263 1156)">Medium</text>
  <text style="stroke:none;fill:black;font-family:sans-serif;font-size:13;" transform="matrix(1 0 0 1 263 1586)">Large</text>
 </g>
 <g id="Guides">
  <g id="H-reference" style="fill:#27AAE1;stroke:none;" transform="matrix(1 0 0 1 339 696)">
   <path d="M0.993654 0L3.63775 0L29.3281-67.1323L30.0303-67.1323L30.0303-70.459L28.1226-70.459ZM11.6885-24.4799L46.9815-24.4799L46.2315-26.7285L12.4385-26.7285ZM55.1196 0L57.7637 0L30.6382-70.459L29.4326-70.459L29.4326-67.1323Z"/>
  </g>
  <line id="Baseline-S" style="fill:none;stroke:#27AAE1;opacity:1;stroke-width:0.5;" x1="263" x2="3036" y1="696" y2="696"/>
  <line id="Capline-S" style="fill:none;stroke:#27AAE1;opacity:1;stroke-width:0.5;" x1="263" x2="3036" y1="625.541" y2="625.541"/>
  <g id="H-reference" style="fill:#27AAE1;stroke:none;" transform="matrix(1 0 0 1 339 1126)">
   <path d="M0.993654 0L3.63775 0L29.3281-67.1323L30.0303-67.1323L30.0303-70.459L28.1226-70.459ZM11.6885-24.4799L46.9815-24.4799L46.2315-26.7285L12.4385-26.7285ZM55.1196 0L57.7637 0L30.6382-70.459L29.4326-70.459L29.4326-67.1323Z"/>
  </g>
  <line id="Baseline-M" style="fill:none;stroke:#27AAE1;opacity:1;stroke-width:0.5;" x1="263" x2="3036" y1="1126" y2="1126"/>
  <line id="Capline-M" style="fill:none;stroke:#27AAE1;opacity:1;stroke-width:0.5;" x1="263" x2="3036" y1="1055.54" y2="1055.54"/>
  <g id="H-reference" style="fill:#27AAE1;stroke:none;" transform="matrix(1 0 0 1 339 1556)">
   <path d="M0.993654 0L3.63775 0L29.3281-67.1323L30.0303-67.1323L30.0303-70.459L28.1226-70.459ZM11.6885-24.4799L46.9815-24.4799L46.2315-26.7285L12.4385-26.7285ZM55.1196 0L57.7637 0L30.6382-70.459L29.4326-70.459L29.4326-67.1323Z"/>
  </g>
  <line id="Baseline-L" style="fill:none;stroke:#27AAE1;opacity:1;stroke-width:0.5;" x1="263" x2="3036" y1="1556" y2="1556"/>
  <line id="Capline-L" style="fill:none;stroke:#27AAE1;opacity:1;stroke-width:0.5;" x1="263" x2="3036" y1="1485.54" y2="1485.54"/>
  <line id="right-margin-Black-S" style="fill:none;stroke:#FF3B30;stroke-width:0.5;opacity:1.0;" x1="2979.62" x2="2979.62" y1="600.785" y2="720.121"/>
  <line id="left-margin-Black-S" style="fill:none;stroke:#FF3B30;stroke-width:0.5;opacity:1.0;" x1="2887.18" x2="2887.18" y1="600.785" y2="720.121"/>
  <line id="right-margin-Regular-S" style="fill:none;stroke:#FF3B30;stroke-width:0.5;opacity:1.0;" x1="1492.18" x2="1492.18" y1="600.785" y2="720.121"/>
  <line id="left-margin-Regular-S" style="fill:none;stroke:#FF3B30;stroke-width:0.5;opacity:1.0;" x1="1407.51" x2="1407.51" y1="600.785" y2="720.121"/>
  <line id="right-margin-Ultralight-S" style="fill:none;stroke:#FF3B30;stroke-width:0.5;opacity:1.0;" x1="598.321" x2="598.321" y1="600.785" y2="720.121"/>
  <line id="left-margin-Ultralight-S" style="fill:none;stroke:#FF3B30;stroke-width:0.5;opacity:1.0;" x1="521.101" x2="521.101" y1="600.785" y2="720.121"/>
 </g>
 <g id="Symbols">
  <g id="Black-S" transform="matrix(1 0 0 1 2887.18 696)">
   <path class="monochrome-0 multicolor-0:tintColor hierarchical-0:primary SFSymbolsPreviewWireframe" d="M-9.49927-7.63551C-9.33616-7.60647-9.17543-7.59254-9.00654-7.59254C-7.75172-7.59254-6.28844-8.37153-3.08257-10.0775C-2.55264-10.36-1.97556-10.6677-1.34417-10.9997C-0.106465-11.6546 1.50224-12.36 3.20483-13.1065C6.65915-14.6209 10.231-16.1875 11.3615-17.6151C13.0951-19.8081 25.0915-32.5973 27.3519-34.0445C27.877-34.5446 28.2689-36.6134 28.6618-40.9627C28.7966-42.4528 29.032-44.2326 29.3614-46.2545C29.8686-46.3828 30.3677-46.5175 30.8629-46.6537C30.759-46.0353 30.6445-45.3414 30.5227-44.602C29.8856-40.7258 29.0141-35.4242 28.2737-33.3505C26.8436-31.7193 24.2417-28.2755 21.7241-24.9447C19.5359-22.0488 17.4687-19.3136 16.4763-18.1789C14.2394-15.6199 9.82762-13.2265 7.70609-12.0765C4.01982-10.0727 0.828479-8.61442 0.23847-8.39759C0.0445185-8.32717-0.00421799-8.18335 0.0152766-8.07215C0.0817173-7.69618 1.01268-7.49089 1.4722-7.49089C1.68485-7.49089 1.86905-7.52252 2.01924-7.58439C3.136-8.0445 3.46403-8.22234 4.25774-8.64983C4.97267-9.03614 6.05223-9.61899 8.42222-10.7966C12.2579-12.6707 15.6171-15.0691 17.19-17.0566C17.478-17.421 17.9692-18.0631 18.5956-18.8829C21.4898-22.665 27.512-30.5351 29.429-31.7599C29.8016-32.1151 30.0833-33.6978 30.549-36.4654C30.7777-37.8241 31.0141-39.2283 31.2794-40.4562C31.6884-42.3416 32.1358-44.5394 32.6478-47.1699C35.6864-48.0846 38.4126-49.087 40.8216-49.9732C41.815-50.3384 42.7589-50.6859 43.5998-50.9787C43.5413-50.5113 43.482-50.1291 43.4164-49.7914C42.4198-44.6311 40.6116-33.7294 40.4793-32.9325C40.0977-32.3863 39.6814-31.7628 39.2326-31.06C36.9187-28.7664 34.8994-26.3933 32.9458-24.0989C31.5002-22.4003 30.0045-20.644 28.4366-18.9808C25.5325-15.7108 22.0947-14.1656 19.4235-13.1851C19.404-13.1777 19.3853-13.168 19.3692-13.1543C19.2045-13.026 18.8962-12.9717 18.625-12.9237C18.2525-12.8581 17.9302-12.8012 17.82-12.5529C17.7583-12.4143 17.7842-12.2543 17.8954-12.0765C18.1315-11.7013 18.4651-11.5026 18.8596-11.5026C19.2385-11.5026 19.6525-11.6886 20.0145-12.0114C23.5629-13.7946 27.509-16.0007 29.8724-18.8379C32.0914-21.4991 34.058-23.6288 35.8604-25.5053C34.9271-23.8934 34.0059-22.2582 33.1075-20.6641C31.8334-18.4021 30.6297-16.266 29.5828-14.5298C26.1448-10.3671 22.6891-8.29117 21.0285-7.29276C20.1958-6.79267 19.9531-6.6395 19.898-6.44137C19.8639-6.3238 19.8956-6.19232 19.9873-6.06978C20.1227-5.88876 20.4279-5.6956 20.8769-5.6956C21.0919-5.6956 21.3175-5.74036 21.5488-5.82709C21.5715-5.83604 21.5926-5.84798 21.6113-5.86449C22.1599-6.34668 22.9246-6.95121 23.8092-7.65063C26.3405-9.6528 29.8078-12.3946 31.1105-14.6394C33.7377-19.1683 35.7862-22.6388 37.4321-25.4283C38.4353-27.1285 39.2827-28.5651 39.984-29.7784C40.9189-30.7987 41.4562-31.4869 41.7808-32.0801C42.3028-33.0304 42.8206-35.3419 43.4204-38.0178C43.745-39.4658 44.0802-40.9631 44.4625-42.4727C45.1954-45.3605 46.1532-48.7886 47.0394-51.6967C48.9369-50.6644 50.1657-49.5606 51.0706-48.7472L51.1607-48.666C51.3045-47.8974 51.5196-46.8634 51.7491-46.1638C51.9504-45.5632 52.5104-44.0836 53.3765-43.3134C53.5502-43.1592 53.7831-43.0804 54.0696-43.0804C54.7505-43.0804 55.5912-43.53 55.8989-43.7086C56.2675-43.4489 57.4612-42.6868 58.1915-42.8425C59.1175-43.0389 60.7278-44.8976 61.2993-46.1946C61.3504-46.3098 61.3934-46.4244 61.4298-46.5387C62.1895-47.0233 62.6416-47.5395 63.0069-47.9575C63.3307-48.3267 63.5863-48.6189 63.9394-48.7691C63.9997-48.7949 64.0433-48.8479 64.058-48.9111C64.1523-49.3306 64.2229-49.7293 64.2714-50.1196C64.5847-49.8445 64.8769-49.6334 65.1302-49.5003C65.8841-48.4802 66.7629-47.7959 67.7444-47.4655C68.7184-43.9569 71.5411-33.7851 72.0468-31.9152C72.6489-29.6849 74.0969-28.3036 74.1317-28.2759C74.144-28.2588 75.3694-26.5528 77.1402-24.928C81.7772-20.6832 93.1582-10.4919 98.6821-7.53665C100.072-6.79247 101.447-6.21062 102.269-6.01826C102.666-5.92317 103.139-6.36637 103.308-6.67312C103.441-6.91262 103.405-7.0644 103.353-7.14795C103.26-7.29973 103.068-7.32817 102.647-7.39163C101.887-7.50522 100.472-7.71707 98.7024-8.80777C95.9706-10.4927 89.8933-15.0192 85.5398-18.8206C80.5548-23.1807 75.366-28.9236 75.3362-28.952C75.3199-28.9781 73.7096-31.5987 72.1862-36.4181C71.2423-39.4055 70.1638-43.2436 69.1427-47.2523C69.5169-47.262 69.8861-47.3245 70.2431-47.4397C71.2115-44.7988 72.3143-41.7536 73.1635-39.4087C73.6221-38.1418 74.0066-37.0801 74.2503-36.4155C74.5327-35.3035 76.5568-34.1308 76.8466-33.9677C77.1299-33.6463 79.9073-30.5037 81.4127-29.1856C82.0887-28.593 82.7153-28.0322 83.3174-27.4925C86.4584-24.6786 88.9396-22.4566 94.2784-19.5893C97.1775-18.5958 100.004-18.4472 101.431-18.4472C101.646-18.4472 101.849-18.4506 102.037-18.4562L102.128-18.458C102.5-18.458 102.89-18.3906 103.204-18.3362C103.428-18.2973 103.604-18.2672 103.73-18.2672C103.807-18.2672 103.916-18.277 103.994-18.3589C104.032-18.3995 104.064-18.4904 104.061-18.5455C104.003-19.4449 103.593-19.6209 102.905-19.6209C102.772-19.6209 102.624-19.6151 102.461-19.6086C102.319-19.6038 102.166-19.597 101.999-19.5948C98.6621-19.5437 96.5737-19.9024 94.1015-20.9909C92.2601-21.7977 91.6732-22.2845 90.5046-23.2537C89.7351-23.8924 88.7765-24.6869 87.0892-25.889C80.7328-30.4153 76.932-35.918 76.8661-36.0065C76.859-36.0137 76.0861-36.766 74.9264-39.2804C73.7909-41.7445 72.7066-44.71 71.7392-47.3876C73.0549-46.8081 74.9459-46.0558 77.117-45.4373C79.219-44.8375 81.1279-44.1785 82.9743-43.5422C85.2299-42.7646 87.3612-42.0293 89.5215-41.5189C90.0986-41.1845 92.2981-40.4306 92.5668-40.3721C93.0359-40.2738 94.7508-40.2058 94.824-40.2024C94.9076-40.195 94.9913-40.2519 95.0219-40.3339C95.0528-40.4159 95.0277-40.5084 94.9603-40.5637C94.9245-40.5929 94.0675-41.2796 92.8403-41.5368C92.6633-41.5734 92.4678-41.6172 92.2698-41.6601C91.6108-41.8053 91.0076-41.945 90.7829-41.9247C89.0727-42.4709 87.1841-43.1437 85.1859-43.8555C82.8096-44.7019 80.3511-45.5777 78.0909-46.2724C75.7957-46.9776 73.4038-48.265 72.2968-48.8988C72.3812-49.0205 72.4404-49.1697 72.4761-49.3499C72.9582-49.2817 73.489-49.2477 74.0587-49.2477C76.7499-49.2477 79.9582-50.0227 81.8868-50.6867C83.2999-51.1729 85.4676-52.2288 87.3797-53.1613C88.6498-53.7806 89.7471-54.3155 90.3144-54.5297C91.9929-55.1595 93.3094-55.2845 93.9424-55.3447C94.2312-55.3724 94.3285-55.3813 94.4001-55.4283C94.4765-55.477 94.5187-55.5809 94.4944-55.6678C94.4449-55.8367 94.2638-55.8367 94.0894-55.8367C93.2308-55.8367 90.6197-55.5421 89.2553-54.8132C87.5273-53.8848 83.4726-52.0181 81.2983-51.3185C78.4016-50.3859 76.104-50.1904 74.6869-50.1904C73.6236-50.1904 72.8526-50.3008 72.4412-50.4152C72.4233-50.5272 72.3951-50.7074 72.3674-50.89C72.3308-51.1245 72.3074-51.2763 72.2911-51.3754C73.4371-51.7496 76.8474-52.9588 78.1671-53.5992C81.8112-55.3718 86.3644-57.6783 87.3604-58.6069C88.8073-59.9566 90.9275-60.8307 90.9476-60.8388C90.9995-60.8599 91.0411-60.9021 91.0604-60.9542C91.0807-61.0061 91.0775-61.0654 91.053-61.1157C91.0246-61.1734 90.9508-61.2707 90.7689-61.2707C90.2235-61.2707 88.3017-60.2058 87.0737-59.3244C86.284-58.7555 83.3379-56.7338 78.5655-54.6097C75.2516-53.1351 72.6788-52.5556 71.7691-52.381C71.0175-53.9409 69.8797-55.3768 68.6955-56.2564C67.965-58.507 67.4285-60.2633 67.1688-61.1601C66.9764-61.8297 66.2557-63.2126 65.2591-63.2126C65.0717-63.2126 64.8857-63.1631 64.7055-63.0658C63.824-62.587 62.3323-60.2615 61.205-58.3358C59.9715-59.4867 58.5543-60.1432 56.9902-60.2876C55.6648-60.4117 54.5408-60.5253 53.554-60.627C52.4931-62.2436 51.2035-64.0333 50.8398-64.284C50.6029-64.4471 50.137-64.5446 49.594-64.5446C49.2602-64.5446 48.1436-64.4974 47.7637-63.8937C47.7442-63.8629 47.7215-63.8197 47.6947-63.7403C47.414-64.164 47.2433-64.4165 47.2433-64.4165C47.2101-64.466 47.1574-64.4976 47.0989-64.504C47.0802-64.5064 46.6402-64.5577 46.1054-64.5577C45.1047-64.5577 44.4749-64.3783 44.2338-64.0236C44.0195-63.7095 44-62.3703 43.9797-59.614L43.9708-58.6011C43.1827-58.7837 41.9961-59.0362 40.4679-59.3007C39.8763-60.5822 39.3058-61.8818 38.8009-63.0318C38.0007-64.8547 37.5738-65.8171 37.3888-66.0622C36.8668-66.7481 36.315-67.0954 35.7485-67.0954C35.2679-67.0954 34.8792-66.8461 34.6106-66.5963C34.2844-67.0548 33.5505-67.2253 32.9526-67.2253C32.3926-67.2253 31.9259-67.0825 31.7051-66.8432C31.1907-66.2848 30.6574-64.2605 29.9804-60.2918C25.0881-60.2383 21.0869-59.3439 18.1552-58.6888C14.5087-57.8748 11.6056-56.5615 10.9303-55.4229C10.7711-55.155 10.7274-54.8946 10.798-54.6479C10.8823-54.3557 10.5211-53.9833 10.1023-53.5522C9.4059-52.8355 8.53918-51.9443 8.91078-50.6368C9.08464-50.0249 10.0146-49.9461 10.8059-49.9461C11.5778-49.9461 12.5646-50.0336 13.6084-50.1263C14.8656-50.2383 16.2907-50.3641 17.6348-50.3641C18.186-50.3641 18.6859-50.3438 19.1452-50.3008C16.3175-49.5103 13.4102-48.1817 12.947-46.979C12.8373-46.6941 12.8658-46.4182 13.0297-46.1811C13.6336-45.302 17.6161-45.2071 19.301-45.2071C22.2568-45.2071 25.4189-45.4725 27.8319-45.9197C27.7386-45.1389 27.6453-44.3128 27.551-43.4735C27.1696-40.0827 26.776-36.5772 26.2084-34.9629C22.7024-31.9924 12.7001-21.1461 10.5061-18.6348C9.00228-16.9167 4.59511-15.016 1.37632-13.6273C0.0542658-13.0566-1.08855-12.5639-1.87331-12.1598L-3.1516-11.5008C-5.33161-10.3761-7.0531-9.4873-7.59676-9.27942C-7.80941-9.20005-8.11775-9.16086-8.53986-9.16086C-8.84243-9.16086-9.15673-9.18056-9.44238-9.19747C-9.94884-9.22909-10.3302-9.24381-10.5146-9.18056C-10.6389-9.13819-10.7127-9.02062-10.7012-8.88257C-10.6711-8.50382-9.90667-7.70633-9.49927-7.63551ZM33.7256-64.5376C33.4642-63.5094 33.1786-62.0606 32.8734-60.2263L32.7256-60.2361C32.5706-60.2474 32.4155-60.258 32.2629-60.2669C32.8115-62.5167 33.2482-64.1392 33.4642-64.8217C33.5285-64.7568 33.6128-64.6651 33.7256-64.5376ZM35.0777-60.0559C35.2416-60.9112 35.3894-61.6709 35.5209-62.3097C36.0922-61.5721 36.752-60.7059 37.4582-59.7686C36.6213-59.8806 35.8366-59.9755 35.0777-60.0559ZM48.9904-61.77C49.0527-61.9267 49.1217-62.0443 49.1957-62.1173C49.4342-61.9769 49.7963-61.6677 50.3115-61.0005C49.9715-61.0419 49.6728-61.0799 49.4108-61.1149C49.2679-61.3407 49.1277-61.5589 48.9904-61.77ZM45.998-61.7594C46.2505-61.4479 46.6481-60.8585 47.1424-60.0606C47.0881-59.6272 47.0297-59.1728 46.9686-58.7004C46.6732-58.521 46.3324-58.3375 45.9525-58.1557L45.9509-58.1776C45.8381-59.508 45.6887-61.2846 45.998-61.7594ZM45.7082-51.6541C45.5693-51.1297 45.4305-50.6728 45.2871-50.2654C44.9909-49.4261 44.6191-48.2137 44.1743-46.6392C44.5419-48.4816 44.9185-50.1908 45.2204-51.5121C45.3885-51.5624 45.5508-51.6103 45.7082-51.6541Z"/>
  </g>
  <g id="Regular-S" transform="matrix(1 0 0 1 1407.51 696)">
   <path class="monochrome-0 multicolor-0:tintColor hierarchical-0:primary SFSymbolsPreviewWireframe" d="M-11.2199-6.70162C-11.054-6.67207-10.8905-6.65791-10.7187-6.65791C-9.44218-6.65791-7.95361-7.45036-4.69234-9.18581C-4.15325-9.47317-3.5662-9.78622-2.9239-10.124C-1.66481-10.7901-0.0283076-11.5077 1.70371-12.2672C5.21772-13.8078 8.85133-15.4014 10.0014-16.8537C11.7649-19.0845 23.9686-32.0948 26.268-33.567C26.8022-34.0757 27.2009-36.1803 27.6006-40.6047C27.7378-42.1206 27.9772-43.9311 28.3123-45.9879C28.8283-46.1185 29.336-46.2555 29.8397-46.3941C29.7341-45.7649 29.6175-45.0591 29.4937-44.3069C28.8455-40.3637 27.9589-34.9706 27.2058-32.8609C25.751-31.2016 23.1041-27.6983 20.543-24.3099C18.317-21.3639 16.2141-18.5815 15.2045-17.4272C12.9289-14.824 8.44094-12.3892 6.28275-11.2193C2.53278-9.18095-0.713707-7.69744-1.31391-7.47687C-1.51122-7.40523-1.56079-7.25892-1.54096-7.1458C-1.47337-6.76334-0.52632-6.5545-0.0588642-6.5545C0.157461-6.5545 0.344848-6.58668 0.497631-6.64961C1.63369-7.11767 1.96739-7.29858 2.77481-7.73346C3.5021-8.12645 4.60032-8.71937 7.01125-9.91735C10.9132-11.8238 14.3305-14.2637 15.9306-16.2855C16.2236-16.6562 16.7232-17.3094 17.3604-18.1434C20.3046-21.9909 26.4309-29.9969 28.3811-31.2428C28.7601-31.6043 29.0466-33.2143 29.5204-36.0297C29.7531-37.4119 29.9935-38.8403 30.2634-40.0895C30.6795-42.0075 31.1346-44.2432 31.6555-46.9192C34.7466-47.8497 37.5199-48.8694 39.9705-49.7709C40.9811-50.1424 41.9413-50.496 42.7967-50.7938C42.7372-50.3183 42.6769-49.9296 42.6101-49.5859C41.5963-44.3365 39.7568-33.2464 39.6223-32.4358C39.2341-31.8801 38.8106-31.2459 38.3541-30.5309C36.0002-28.1977 33.946-25.7835 31.9586-23.4495C30.4881-21.7215 28.9665-19.9349 27.3715-18.2429C24.4172-14.9165 20.92-13.3446 18.2027-12.3471C18.1828-12.3396 18.1638-12.3297 18.1474-12.3157C17.9799-12.1852 17.6662-12.13 17.3904-12.0812C17.0114-12.0144 16.6835-11.9566 16.5714-11.704C16.5087-11.563 16.535-11.4003 16.6481-11.2193C16.8883-10.8377 17.2277-10.6355 17.629-10.6355C18.0145-10.6355 18.4356-10.8247 18.8039-11.1532C22.4136-12.9671 26.4279-15.2113 28.8321-18.0976C31.0895-20.8048 33.09-22.9713 34.9236-24.8802C33.9742-23.2404 33.037-21.577 32.1231-19.9553C30.827-17.6543 29.6025-15.4813 28.5375-13.7151C25.0401-9.48045 21.5246-7.3686 19.8353-6.35295C18.9882-5.84421 18.7414-5.68839 18.6853-5.48684C18.6507-5.36724 18.6829-5.23348 18.7762-5.10883C18.914-4.92468 19.2244-4.72818 19.6811-4.72818C19.8999-4.72818 20.1294-4.77372 20.3647-4.86195C20.3878-4.87105 20.4092-4.88319 20.4283-4.89999C20.9864-5.39051 21.7642-6.00549 22.6641-6.717C25.2392-8.75377 28.7664-11.5429 30.0916-13.8266C32.7642-18.4337 34.8482-21.9642 36.5225-24.8019C37.543-26.5315 38.4051-27.9929 39.1184-29.2271C40.0695-30.265 40.6161-30.9652 40.9463-31.5687C41.4773-32.5353 42.0041-34.8868 42.6142-37.609C42.9444-39.0819 43.2854-40.6051 43.6744-42.1408C44.4199-45.0785 45.3942-48.5658 46.2958-51.5242C48.2261-50.4741 49.4761-49.3512 50.3966-48.5237L50.4883-48.4412C50.6346-47.6593 50.8534-46.6074 51.0869-45.8957C51.2917-45.2847 51.8613-43.7796 52.7424-42.996C52.9191-42.8392 53.156-42.7591 53.4474-42.7591C54.1401-42.7591 54.9953-43.2164 55.3084-43.3981C55.6833-43.1338 56.8977-42.3586 57.6406-42.517C58.5826-42.7168 60.2207-44.6076 60.8021-45.927C60.8541-46.0442 60.8978-46.1608 60.9348-46.2771C61.7076-46.7701 62.1676-47.2952 62.5391-47.7204C62.8686-48.0959 63.1286-48.3932 63.4878-48.546C63.5491-48.5723 63.5935-48.6261 63.6084-48.6905C63.7043-49.1173 63.7762-49.5228 63.8256-49.9198C64.1443-49.64 64.4416-49.4253 64.6992-49.2899C65.4661-48.2522 66.3601-47.556 67.3586-47.2199C68.3494-43.6507 71.2209-33.3031 71.7353-31.4009C72.3478-29.132 73.8208-27.7268 73.8562-27.6987C73.8688-27.6813 75.1153-25.9458 76.9168-24.2929C81.6338-19.9747 93.2115-9.60733 98.8309-6.60104C100.245-5.84401 101.644-5.2521 102.48-5.05642C102.884-4.95969 103.364-5.41055 103.537-5.72259C103.672-5.96623 103.635-6.12064 103.583-6.20563C103.487-6.36003 103.293-6.38897 102.864-6.45352C102.091-6.56907 100.652-6.78459 98.8516-7.89414C96.0725-9.60814 89.8902-14.2129 85.4615-18.08C80.3903-22.5154 75.1119-28.3576 75.0815-28.3865C75.0649-28.413 73.4268-31.0789 71.8771-35.9816C70.9169-39.0206 69.8197-42.925 68.781-47.003C69.1616-47.0129 69.5372-47.0765 69.9005-47.1936C70.8856-44.5071 72.0075-41.4093 72.8713-39.0239C73.3378-37.735 73.7289-36.655 73.9768-35.9789C74.2642-34.8477 76.3232-33.6548 76.6181-33.4889C76.9062-33.1618 79.7316-29.9649 81.2631-28.6241C81.9507-28.0212 82.5881-27.4508 83.2007-26.9018C86.396-24.0392 88.9201-21.7788 94.351-18.8619C97.3003-17.8514 100.176-17.7002 101.627-17.7002C101.846-17.7002 102.053-17.7036 102.243-17.7093L102.337-17.7111C102.715-17.7111 103.112-17.6425 103.431-17.5873C103.658-17.5476 103.838-17.517 103.966-17.517C104.044-17.517 104.156-17.527 104.235-17.6103C104.274-17.6516 104.306-17.7441 104.303-17.8002C104.244-18.715 103.827-18.8941 103.127-18.8941C102.991-18.8941 102.841-18.8883 102.675-18.8816C102.531-18.8767 102.375-18.8698 102.206-18.8676C98.8105-18.8156 96.6861-19.1805 94.1711-20.2878C92.2979-21.1086 91.7009-21.6037 90.512-22.5897C89.7293-23.2394 88.7541-24.0477 87.0377-25.2705C80.5714-29.8751 76.7049-35.4728 76.6379-35.5629C76.6306-35.5702 75.8444-36.3355 74.6647-38.8933C73.5096-41.4 72.4065-44.4168 71.4224-47.1406C72.7608-46.5511 74.6845-45.7858 76.8931-45.1566C79.0314-44.5465 80.9733-43.8761 82.8516-43.2287C85.1462-42.4377 87.3143-41.6898 89.512-41.1705C90.099-40.8303 92.3365-40.0634 92.6099-40.0039C93.0871-39.9039 94.8316-39.8347 94.9061-39.8313C94.9911-39.8238 95.0763-39.8817 95.1075-39.9651C95.1388-40.0484 95.1133-40.1425 95.0447-40.1988C95.0083-40.2285 94.1365-40.9271 92.8882-41.1887C92.7081-41.226 92.5091-41.2705 92.3078-41.3142C91.6374-41.4619 91.0238-41.604 90.7951-41.5833C89.0554-42.139 87.1342-42.8234 85.1015-43.5475C82.6841-44.4085 80.1831-45.2995 77.8838-46.0062C75.549-46.7235 73.1158-48.0332 71.9896-48.6779C72.0754-48.8018 72.1358-48.9536 72.172-49.1369C72.6625-49.0675 73.2024-49.0329 73.782-49.0329C76.5197-49.0329 79.7834-49.8213 81.7453-50.4968C83.1829-50.9913 85.388-52.0655 87.3331-53.0142C88.6252-53.6441 89.7414-54.1883 90.3186-54.4062C92.0261-55.0469 93.3653-55.174 94.0092-55.2353C94.3031-55.2634 94.402-55.2725 94.4749-55.3203C94.5526-55.3698 94.5955-55.4755 94.5708-55.5639C94.5204-55.7357 94.3363-55.7357 94.1588-55.7357C93.2854-55.7357 90.6292-55.436 89.2412-54.6946C87.4833-53.7501 83.3585-51.8512 81.1467-51.1395C78.1999-50.1908 75.8627-49.9919 74.421-49.9919C73.3394-49.9919 72.555-50.1042 72.1366-50.2205C72.1183-50.3345 72.0896-50.5178 72.0615-50.7036C72.0243-50.9422 72.0004-51.0966 71.9838-51.1973C73.1496-51.578 76.6189-52.8081 77.9613-53.4596C81.6684-55.2628 86.3003-57.6092 87.3135-58.5538C88.7855-59.9268 90.9423-60.816 90.9627-60.8243C91.0155-60.8458 91.0578-60.8887 91.0774-60.9417C91.0981-60.9945 91.0948-61.0548 91.0699-61.106C91.041-61.1647 90.9659-61.2636 90.781-61.2636C90.2261-61.2636 88.2711-60.1804 87.0219-59.2837C86.2185-58.705 83.2215-56.6484 78.3667-54.4875C74.9955-52.9874 72.3782-52.398 71.4528-52.2203C70.6883-53.8072 69.5307-55.2679 68.3261-56.1627C67.583-58.4522 67.0372-60.2389 66.773-61.1511C66.5773-61.8323 65.8441-63.2391 64.8303-63.2391C64.6397-63.2391 64.4505-63.1887 64.2671-63.0897C63.3704-62.6027 61.8529-60.2371 60.7062-58.278C59.4513-59.4489 58.0097-60.1166 56.4185-60.2636C55.0702-60.3898 53.9268-60.5054 52.9229-60.6088C51.8437-62.2534 50.5318-64.074 50.1619-64.329C49.9209-64.495 49.4469-64.5941 48.8945-64.5941C48.5549-64.5941 47.4191-64.5461 47.0326-63.932C47.0127-63.9006 46.9897-63.8567 46.9623-63.776C46.6768-64.207 46.5032-64.4638 46.5032-64.4638C46.4694-64.5142 46.4158-64.5464 46.3563-64.5528C46.3372-64.5553 45.8896-64.6075 45.3457-64.6075C44.3276-64.6075 43.6869-64.4249 43.4417-64.0641C43.2237-63.7446 43.2039-62.3823 43.1832-59.5784L43.1741-58.5479C42.3724-58.7337 41.1653-58.9905 39.6107-59.2596C39.0089-60.5633 38.4285-61.8853 37.9149-63.0551C37.1008-64.9096 36.6666-65.8886 36.4784-66.1379C35.9474-66.8357 35.386-67.189 34.8097-67.189C34.3208-67.189 33.9254-66.9354 33.6522-66.6813C33.3203-67.1477 32.5738-67.3211 31.9655-67.3211C31.3959-67.3211 30.9211-67.1758 30.6965-66.9324C30.1732-66.3644 29.6307-64.3051 28.942-60.2678C23.9651-60.2134 19.8948-59.3036 16.9124-58.6372C13.2029-57.8091 10.2497-56.4731 9.56263-55.3148C9.40074-55.0422 9.35622-54.7773 9.42806-54.5264C9.51386-54.2291 9.14637-53.8503 8.7204-53.4118C8.01193-52.6827 7.13024-51.7761 7.50826-50.446C7.68512-49.8235 8.63116-49.7434 9.43616-49.7434C10.2213-49.7434 11.2252-49.8324 12.287-49.9267C13.566-50.0406 15.0157-50.1685 16.383-50.1685C16.9438-50.1685 17.4523-50.1479 17.9196-50.1042C15.043-49.3 12.0855-47.9484 11.6142-46.7249C11.5027-46.4352 11.5316-46.1545 11.6984-45.9133C12.3127-45.019 16.364-44.9225 18.078-44.9225C21.0849-44.9225 24.3017-45.1925 26.7563-45.6474C26.6614-44.8531 26.5665-44.0127 26.4706-43.1589C26.0826-39.7095 25.6822-36.1434 25.1048-34.5013C21.5382-31.4794 11.363-20.4456 9.1312-17.891C7.60134-16.1432 3.11801-14.2096-0.156403-12.797C-1.5013-12.2164-2.66387-11.7151-3.46219-11.3041L-4.76256-10.6337C-6.98025-9.48956-8.73149-8.5854-9.28454-8.37394C-9.50087-8.29319-9.81453-8.25333-10.2439-8.25333C-10.5517-8.25333-10.8715-8.27336-11.1621-8.29056C-11.6773-8.32274-12.0652-8.33771-12.2528-8.27336C-12.3793-8.23026-12.4543-8.11066-12.4426-7.97022C-12.412-7.58493-11.6344-6.77366-11.2199-6.70162ZM32.7519-64.587C32.486-63.541 32.1954-62.0672 31.885-60.2012L31.7346-60.2112C31.577-60.2227 31.4191-60.2334 31.2639-60.2425C31.822-62.5312 32.2662-64.1817 32.486-64.876C32.5513-64.81 32.6371-64.7167 32.7519-64.587ZM34.1273-60.0278C34.2941-60.898 34.4444-61.6708 34.5782-62.3206C35.1594-61.5702 35.8306-60.6891 36.549-59.7356C35.6977-59.8495 34.8993-59.9461 34.1273-60.0278ZM48.2805-61.7716C48.3439-61.931 48.4141-62.0506 48.4894-62.1249C48.732-61.982 49.1003-61.6676 49.6244-60.9888C49.2786-61.0309 48.9746-61.0696 48.7081-61.1052C48.5628-61.3349 48.4202-61.5569 48.2805-61.7716ZM45.2364-61.7608C45.4932-61.4439 45.8977-60.8443 46.4006-60.0327C46.3453-59.5917 46.2858-59.1295 46.2237-58.6489C45.9232-58.4664 45.5766-58.2798 45.1901-58.0949L45.1884-58.1171C45.0737-59.4705 44.9217-61.2778 45.2364-61.7608ZM44.9416-51.4809C44.8003-50.9474 44.6591-50.4826 44.5132-50.0682C44.2118-49.2144 43.8336-47.981 43.3811-46.3793C43.7551-48.2536 44.1382-49.9923 44.4454-51.3364C44.6164-51.3876 44.7815-51.4363 44.9416-51.4809Z"/>
  </g>
  <g id="Ultralight-S" transform="matrix(1 0 0 1 521.101 696)">
   <path class="monochrome-0 multicolor-0:tintColor hierarchical-0:primary SFSymbolsPreviewWireframe" d="M-16.6534-6.61669C-16.496-6.58866-16.3408-6.57521-16.1777-6.57521C-14.9663-6.57521-13.5536-7.32728-10.4585-8.97429C-9.94688-9.247-9.38975-9.5441-8.78018-9.86463C-7.58525-10.4969-6.03215-11.1779-4.3884-11.8986C-1.05346-13.3607 2.39498-14.8731 3.48639-16.2514C5.1601-18.3686 16.7418-30.7158 18.9241-32.113C19.4311-32.5958 19.8094-34.5931 20.1887-38.7921C20.3189-40.2307 20.5461-41.949 20.8642-43.901C21.3539-44.0248 21.8357-44.1548 22.3138-44.2864C22.2135-43.6893 22.1029-43.0194 21.9854-42.3056C21.3702-38.5633 20.5288-33.445 19.814-31.4429C18.4334-29.8681 15.9214-26.5433 13.4908-23.3277C11.3783-20.5318 9.3825-17.8911 8.42436-16.7957C6.26477-14.3252 2.0055-12.0144-0.0427059-10.9042C-3.60157-8.96968-6.68262-7.56177-7.25224-7.35244C-7.43949-7.28445-7.48654-7.1456-7.46772-7.03824C-7.40357-6.67527-6.50478-6.47708-6.06115-6.47708C-5.85585-6.47708-5.67801-6.50761-5.53301-6.56734C-4.45485-7.01155-4.13816-7.18324-3.37188-7.59595C-2.68166-7.96891-1.6394-8.53162 0.648672-9.66855C4.35177-11.4778 7.5949-13.7934 9.11344-15.7122C9.39152-16.064 9.86569-16.6839 10.4705-17.4754C13.2646-21.1268 19.0787-28.7248 20.9295-29.9073C21.2892-30.2503 21.5611-31.7782 22.0107-34.4502C22.2316-35.7619 22.4597-37.1176 22.7159-38.3031C23.1108-40.1233 23.5427-42.2451 24.037-44.7848C26.9706-45.6678 29.6026-46.6355 31.9283-47.4911C32.8874-47.8437 33.7987-48.1792 34.6105-48.4619C34.554-48.0106 34.4968-47.6417 34.4334-47.3156C33.4712-42.3336 31.7255-31.8088 31.5978-31.0394C31.2295-30.512 30.8275-29.9102 30.3942-29.2317C28.1603-27.0173 26.2108-24.7262 24.3247-22.5111C22.9291-20.8712 21.4851-19.1756 19.9713-17.5698C17.1676-14.4129 13.8486-12.9211 11.2698-11.9745C11.2509-11.9674 11.2329-11.958 11.2173-11.9447C11.0583-11.8208 10.7606-11.7684 10.4989-11.7221C10.1392-11.6588 9.82805-11.6038 9.72166-11.3642C9.66212-11.2303 9.68709-11.0759 9.79444-10.9042C10.0224-10.542 10.3445-10.3501 10.7253-10.3501C11.0912-10.3501 11.4908-10.5297 11.8403-10.8414C15.2661-12.5629 19.0758-14.6928 21.3575-17.432C23.4999-20.0012 25.3985-22.0573 27.1386-23.8689C26.2375-22.3127 25.3481-20.734 24.4808-19.195C23.2508-17.0112 22.0887-14.9489 21.0779-13.2727C17.7587-9.25392 14.4224-7.24969 12.8192-6.28579C12.0153-5.80298 11.781-5.6551 11.7278-5.46382C11.695-5.35032 11.7255-5.22338 11.814-5.10507C11.9448-4.93031 12.2394-4.74383 12.6729-4.74383C12.8805-4.74383 13.0983-4.78704 13.3216-4.87077C13.3435-4.87942 13.3639-4.89094 13.3819-4.90688C13.9116-5.37241 14.6498-5.95605 15.5039-6.63129C17.9477-8.56427 21.2951-11.2113 22.5529-13.3786C25.0893-17.7509 27.067-21.1014 28.656-23.7945C29.6245-25.436 30.4426-26.823 31.1196-27.9943C32.0222-28.9793 32.541-29.6438 32.8544-30.2165C33.3583-31.1339 33.8582-33.3655 34.4373-35.949C34.7507-37.3469 35.0743-38.7924 35.4434-40.2499C36.1509-43.0379 37.0756-46.3475 37.9312-49.155C39.7632-48.1585 40.9495-47.0928 41.8231-46.3075L41.9101-46.2292C42.0489-45.4871 42.2565-44.4888 42.4782-43.8134C42.6725-43.2336 43.2131-41.8051 44.0493-41.0615C44.217-40.9127 44.4419-40.8366 44.7184-40.8366C45.3758-40.8366 46.1874-41.2706 46.4845-41.4431C46.8404-41.1923 47.9929-40.4566 48.6979-40.6069C49.5919-40.7965 51.1465-42.591 51.6983-43.8431C51.7476-43.9543 51.7891-44.065 51.8242-44.1754C52.5577-44.6432 52.9942-45.1416 53.3468-45.5451C53.6595-45.9015 53.9062-46.1837 54.2471-46.3287C54.3053-46.3536 54.3474-46.4047 54.3616-46.4658C54.4526-46.8708 54.5208-47.2557 54.5677-47.6325C54.8701-47.3669 55.1523-47.1631 55.3967-47.0346C56.1246-46.0498 56.9731-45.3891 57.9207-45.0702C58.8609-41.6828 61.5861-31.8625 62.0743-30.0573C62.6556-27.904 64.0536-26.5704 64.0872-26.5437C64.0991-26.5272 65.2821-24.8802 66.9917-23.3115C71.4684-19.2134 82.4561-9.37433 87.7891-6.52125C89.1312-5.80279 90.4586-5.24105 91.2524-5.05533C91.6355-4.96353 92.0916-5.39142 92.2554-5.68756C92.3831-5.91879 92.3486-6.06532 92.2986-6.14598C92.2084-6.29252 92.0234-6.31998 91.6169-6.38124C90.8834-6.4909 89.5176-6.69544 87.8087-7.74844C85.1713-9.3751 79.304-13.7452 75.101-17.4152C70.2882-21.6246 65.2788-27.169 65.25-27.1965C65.2343-27.2217 63.6796-29.7517 62.2089-34.4045C61.2977-37.2887 60.2564-40.9941 59.2706-44.8643C59.6318-44.8737 59.9883-44.934 60.333-45.0452C61.2679-42.4955 62.3326-39.5556 63.1525-37.2918C63.5951-36.0686 63.9664-35.0436 64.2016-34.402C64.4743-33.3284 66.4284-32.1963 66.7083-32.0388C66.9817-31.7285 69.6631-28.6945 71.1166-27.422C71.7691-26.8499 72.3741-26.3085 72.9554-25.7874C75.9879-23.0707 78.3833-20.9255 83.5375-18.1573C86.3365-17.1982 89.0655-17.0548 90.4431-17.0548C90.6507-17.0548 90.8467-17.058 91.0277-17.0634L91.1162-17.0651C91.4751-17.0651 91.8519-17 92.1552-16.9476C92.3707-16.91 92.5408-16.881 92.663-16.881C92.7367-16.881 92.8425-16.8904 92.9176-16.9695C92.9545-17.0087 92.985-17.0964 92.9819-17.1496C92.9263-18.0179 92.5304-18.1879 91.8659-18.1879C91.7375-18.1879 91.595-18.1823 91.4375-18.176C91.3004-18.1713 91.1523-18.1648 90.9917-18.1627C87.7697-18.1133 85.7536-18.4596 83.3668-19.5105C81.589-20.2895 81.0225-20.7594 79.8942-21.6951C79.1513-22.3117 78.2258-23.0788 76.5969-24.2393C70.4601-28.6092 66.7906-33.9217 66.7271-34.0072C66.7202-34.0141 65.9741-34.7404 64.8544-37.1679C63.7582-39.5468 62.7113-42.4099 61.7774-44.9949C63.0476-44.4354 64.8732-43.7091 66.9693-43.112C68.9986-42.533 70.8415-41.8967 72.6241-41.2824C74.8018-40.5316 76.8594-39.8218 78.9451-39.329C79.5022-39.0062 81.6257-38.2783 81.8851-38.2219C82.338-38.127 83.9937-38.0613 84.0643-38.058C84.145-38.0509 84.2258-38.1059 84.2554-38.185C84.2852-38.2641 84.261-38.3534 84.1959-38.4068C84.1613-38.435 83.334-39.098 82.1492-39.3463C81.9783-39.3817 81.7895-39.4239 81.5984-39.4654C80.9622-39.6056 80.3799-39.7404 80.1628-39.7208C78.5118-40.2482 76.6885-40.8977 74.7593-41.5848C72.4651-42.402 70.0916-43.2476 67.9095-43.9182C65.6937-44.5991 63.3845-45.842 62.3157-46.4539C62.3971-46.5714 62.4544-46.7154 62.4887-46.8894C62.9543-46.8236 63.4667-46.7907 64.0167-46.7907C66.6149-46.7907 69.7123-47.5389 71.5742-48.18C72.9385-48.6494 75.0313-49.6688 76.8773-50.5691C78.1035-51.1669 79.1628-51.6834 79.7106-51.8902C81.3311-52.4982 82.6021-52.6188 83.2132-52.677C83.492-52.7037 83.5859-52.7124 83.6551-52.7577C83.7288-52.8047 83.7695-52.905 83.7461-52.9889C83.6983-53.152 83.5235-53.152 83.3551-53.152C82.5262-53.152 80.0054-52.8675 78.6881-52.1639C77.0198-51.2676 73.1052-49.4654 71.0061-48.79C68.2095-47.8896 65.9913-47.7008 64.6232-47.7008C63.5967-47.7008 62.8523-47.8074 62.4551-47.9179C62.4378-48.026 62.4106-48.2 62.3839-48.3763C62.3485-48.6027 62.3259-48.7492 62.3101-48.8449C63.4165-49.2061 66.709-50.3736 67.9831-50.9918C71.5012-52.7032 75.897-54.93 76.8586-55.8264C78.2556-57.1295 80.3025-57.9734 80.3219-57.9812C80.372-58.0016 80.4121-58.0423 80.4308-58.0926C80.4503-58.1428 80.4473-58.2 80.4237-58.2486C80.3962-58.3043 80.3249-58.3982 80.1494-58.3982C79.6228-58.3982 77.7674-57.3701 76.5819-56.5192C75.8195-55.9699 72.9752-54.0181 68.3678-51.9674C65.1684-50.5437 62.6844-49.9843 61.8062-49.8157C61.0806-51.3217 59.9821-52.708 58.8388-53.5572C58.1336-55.73 57.6157-57.4256 57.3649-58.2914C57.1792-58.9378 56.4834-60.273 55.5212-60.273C55.3403-60.273 55.1607-60.2251 54.9867-60.1312C54.1357-59.669 52.6956-57.4239 51.6072-55.5647C50.4163-56.6759 49.0482-57.3096 47.5381-57.4491C46.2585-57.5689 45.1734-57.6786 44.2206-57.7767C43.1964-59.3375 41.9514-61.0654 41.6003-61.3073C41.3716-61.4648 40.9218-61.5589 40.3975-61.5589C40.0752-61.5589 38.9973-61.5134 38.6305-60.9305C38.6116-60.9008 38.5897-60.8591 38.5638-60.7825C38.2928-61.1915 38.1281-61.4352 38.1281-61.4352C38.096-61.4831 38.0451-61.5136 37.9886-61.5198C37.9706-61.5221 37.5458-61.5716 37.0295-61.5716C36.0633-61.5716 35.4553-61.3984 35.2225-61.056C35.0157-60.7527 34.9969-59.4598 34.9773-56.7988L34.9687-55.8209C34.2078-55.9972 33.0622-56.2409 31.5869-56.4963C31.0157-57.7335 30.4649-58.9882 29.9775-60.0984C29.2049-61.8583 28.7927-62.7875 28.6141-63.0241C28.1102-63.6863 27.5774-64.0216 27.0305-64.0216C26.5665-64.0216 26.1912-63.7809 25.932-63.5397C25.617-63.9824 24.9085-64.147 24.3312-64.147C23.7906-64.147 23.3401-64.0091 23.1269-63.7781C22.6303-63.239 22.1154-61.2847 21.4618-57.4531C16.7386-57.4014 12.8757-56.538 10.0453-55.9056C6.5248-55.1197 3.72204-53.8518 3.07003-52.7525C2.91639-52.4938 2.87414-52.2424 2.94232-52.0043C3.02375-51.7222 2.67498-51.3626 2.27072-50.9465C1.59836-50.2545 0.761597-49.3941 1.12034-48.1318C1.2882-47.5411 2.18603-47.465 2.95-47.465C3.69515-47.465 4.64791-47.5495 5.65559-47.639C6.86934-47.7471 8.24518-47.8685 9.54286-47.8685C10.075-47.8685 10.5576-47.8489 11.0011-47.8074C8.27111-47.0442 5.46431-45.7615 5.01703-44.6004C4.91121-44.3254 4.93867-44.059 5.09692-43.8301C5.67998-42.9814 9.52481-42.8898 11.1515-42.8898C14.0051-42.8898 17.0579-43.146 19.3875-43.5777C19.2974-42.8239 19.2074-42.0264 19.1163-41.2161C18.7482-37.9424 18.3681-34.5581 17.8202-32.9997C14.4353-30.1318 4.77869-19.6603 2.66058-17.2359C1.20869-15.5771-3.04617-13.7421-6.15371-12.4014C-7.43007-11.8504-8.5334-11.3747-9.29103-10.9847L-10.5251-10.3484C-12.6298-9.26256-14.2918-8.40448-14.8167-8.20379C-15.022-8.12716-15.3197-8.08933-15.7272-8.08933C-16.0193-8.08933-16.3227-8.10834-16.5985-8.12467C-17.0875-8.1552-17.4556-8.16941-17.6337-8.10834C-17.7537-8.06744-17.8249-7.95393-17.8138-7.82065C-17.7848-7.45499-17.0468-6.68506-16.6534-6.61669ZM25.0775-61.5522C24.8252-60.5595 24.5494-59.1608 24.2548-57.3899L24.1121-57.3993C23.9625-57.4103 23.8127-57.4205 23.6654-57.4291C24.1951-59.6012 24.6166-61.1675 24.8252-61.8265C24.8872-61.7638 24.9686-61.6753 25.0775-61.5522ZM26.3829-57.2253C26.5411-58.0511 26.6838-58.7846 26.8108-59.4013C27.3623-58.6891 27.9994-57.853 28.6811-56.948C27.8732-57.0561 27.1156-57.1477 26.3829-57.2253ZM39.8148-58.8802C39.8749-59.0316 39.9416-59.1451 40.013-59.2155C40.2433-59.08 40.5928-58.7815 41.0902-58.1374C40.762-58.1773 40.4736-58.214 40.2206-58.2478C40.0827-58.4658 39.9473-58.6765 39.8148-58.8802ZM36.9258-58.87C37.1695-58.5693 37.5534-58.0003 38.0307-57.2299C37.9783-56.8115 37.9218-56.3728 37.8628-55.9167C37.5776-55.7435 37.2487-55.5664 36.8818-55.3909L36.8803-55.412C36.7714-56.6964 36.6272-58.4116 36.9258-58.87ZM36.646-49.1139C36.512-48.6077 36.3779-48.1666 36.2394-47.7732C35.9535-46.963 35.5945-45.7924 35.1651-44.2724C35.52-46.0511 35.8836-47.7012 36.1751-48.9768C36.3374-49.0254 36.4941-49.0717 36.646-49.1139Z"/>
  </g>
 </g>
</svg>
